<svg xmlns="http://www.w3.org/2000/svg" style="display: none;">
  <symbol id="tv-logo" viewBox="0 0 140 18">
    <path d="M119.346 10.3887C118.696 14.3496 115.192 17.4199 108.33 17.4199C101.129 17.4199 97.3381 13.6289 97.3381 8.70704C97.3381 3.7832 101.129 0 108.33 0C115.192 0 118.672 3.07226 119.346 7.03126L115.074 7.03126C114.641 5.2793 112.672 3.4746 108.33 3.4746C103.912 3.4746 101.61 5.7832 101.61 8.70704C101.61 11.6367 103.912 13.9395 108.33 13.9395C112.672 13.9395 114.641 12.1406 115.074 10.3887L119.346 10.3887ZM12.1855 3.86132L12.1855 17.1094L7.91406 17.1094L7.91406 3.86132L1 3.86132L1 0.31054L19.0996 0.31054L19.0996 3.86132L12.1855 3.86132ZM38.5159 13.6523C37.5784 11.6367 36.6643 11.0391 34.9358 10.9629L34.9358 10.5586C37.3616 10.3652 39.2542 8.32618 39.2542 5.58984C39.2542 2.54296 37.0276 0.31054 32.4163 0.31054L21.3069 0.31054L21.3069 17.1094L25.5784 17.1094L25.5784 11.2793L30.3772 11.2793C32.0061 11.2793 32.7034 11.6367 33.2073 12.791L35.0354 17.1094L40.1213 17.1094L38.5159 13.6523ZM80.1069 0.31054L72.3315 17.1094L67.1226 17.1094L59.4934 0.62634L51.9543 11.8066L51.9543 17.1094L47.6829 17.1094L47.6829 11.8066L39.9309 0.31054L44.8235 0.31054L48.6438 6.11718C49.3586 7.29492 49.6223 8.15626 49.6223 8.94726L49.6223 9.2871L50.0325 9.2871L50.0325 8.94726C50.0325 8.15626 50.2727 7.29492 51.0168 6.11718L54.8313 0.31054L64.146 0.31054L68.7046 11.0391C69.3784 12.7676 69.5425 13.4883 69.5425 14.4961L69.5425 14.5664L69.9292 14.5664L69.9292 14.4961C69.9292 13.4883 70.0991 12.7676 70.7671 11.0391L75.3315 0.31054L80.1069 0.31054ZM95.7312 13.6758L95.7312 17.1094L80.9421 17.1094L80.9421 13.6758L86.198 13.6758L86.198 3.74414L80.9421 3.74414L80.9421 0.31054L95.7312 0.31054L95.7312 3.74414L90.4753 3.74414L90.4753 13.6758L95.7312 13.6758ZM122.227 0.31054L138.903 0.31054L138.903 3.66796L126.498 3.66796L126.498 7.07812L137.227 7.07812L137.227 10.0781L126.498 10.0781L126.498 13.752L138.903 13.752L138.903 17.1094L122.227 17.1094L122.227 0.31054ZM25.3616 8.58984L25.3616 3.66796L32.0061 3.66796C33.9983 3.66796 34.9827 4.65234 34.9827 6.11718C34.9827 7.58204 33.9983 8.58984 32.0061 8.58984L25.3616 8.58984Z" fill="currentColor" fill-rule="evenodd" />
  </symbol>
  <symbol id="tv-success" viewBox="0 0 20 20">
    <rect width="20" height="20" rx="10" fill="#22C55E" />
    <path d="M5.8335 10L8.80969 12.9762L14.7621 7.0238" stroke="white" stroke-linecap="round" stroke-linejoin="round" stroke-width="1.5" />
  </symbol>
  <symbol id="tv-error" viewBox="0 0 28 28">
    <rect width="28" height="28" rx="8" fill="#EF4444" />
    <path d="M19 9L9 19M9 9L19 19" stroke="white" stroke-linecap="round" stroke-linejoin="round" stroke-width="1.25" />
  </symbol>
  <symbol id="tv-plus" viewBox="0 0 24 24">
    <path d="M12 5V19M5 12H19" stroke="currentColor" stroke-linecap="round" stroke-linejoin="round" stroke-width="1.5" />
  </symbol>
  <symbol id="tv-close" viewBox="0 0 24 24">
    <path d="M18 6L6 18M6 6L18 18" stroke="currentColor" stroke-linecap="round" stroke-linejoin="round" stroke-width="2" />
  </symbol>
  <symbol id="tv-zoom" viewBox="0 0 24 24">
    <circle cx="11" cy="11" r="8" stroke="currentColor" stroke-width="2" fill="none" />
    <path d="M21 21L16.65 16.65" stroke="currentColor" stroke-width="2" stroke-linecap="round" />
    <path d="M11 8V14M8 11H14" stroke="currentColor" stroke-width="2" stroke-linecap="round" />
  </symbol>
  <symbol id="tv-download" viewBox="0 0 20 20">
    <path d="M3.33325 14.1666L3.33325 15.8333C3.33325 16.2753 3.50885 16.6992 3.82141 17.0118C4.13397 17.3244 4.55789 17.5 4.99992 17.5L14.9999 17.5C15.4419 17.5 15.8659 17.3244 16.1784 17.0118C16.491 16.6992 16.6666 16.2753 16.6666 15.8333L16.6666 14.1666" stroke="currentColor" stroke-linecap="round" stroke-linejoin="round" stroke-width="1.25" />
    <path d="M5.83325 9.16669L9.99992 13.3334L14.1666 9.16669" stroke="currentColor" stroke-linecap="round" stroke-linejoin="round" stroke-width="1.25" />
    <path d="M10 3.33331V13.3333" stroke="currentColor" stroke-linecap="round" stroke-linejoin="round" stroke-width="1.25" />
  </symbol>
  <symbol id="tv-copy" viewBox="0 0 20 20">
    <path d="M7.5 12.5L12.5 7.5" stroke="currentColor" stroke-linecap="round" stroke-linejoin="round" stroke-width="1.25" />
    <path d="M9.16675 4.99993L9.55258 4.55326C10.3341 3.77187 11.394 3.33293 12.4991 3.33301C13.6043 3.33309 14.6641 3.77217 15.4455 4.55368C16.2269 5.33518 16.6658 6.39509 16.6658 7.50022C16.6657 8.60536 16.2266 9.6652 15.4451 10.4466L15.0001 10.8333" stroke="currentColor" stroke-linecap="round" stroke-linejoin="round" stroke-width="1.25" />
    <path d="M10.8334 15L10.5025 15.445C9.71191 16.2268 8.64486 16.6653 7.53295 16.6653C6.42105 16.6653 5.354 16.2268 4.56337 15.445C4.17367 15.0596 3.86428 14.6008 3.65313 14.0951C3.44198 13.5893 3.33325 13.0468 3.33325 12.4987C3.33325 11.9507 3.44198 11.4081 3.65313 10.9023C3.86428 10.3966 4.17367 9.93779 4.56337 9.55246L5.00004 9.16663" stroke="currentColor" stroke-linecap="round" stroke-linejoin="round" stroke-width="1.25" />
  </symbol>
  <symbol id="tv-trash" viewBox="0 0 20 20">
    <path d="M3.33337 5.83337L16.6667 5.83337" stroke="currentColor" stroke-linecap="round" stroke-linejoin="round" stroke-width="1.25" />
    <path d="M8.33337 9.16669V14.1667" stroke="currentColor" stroke-linecap="round" stroke-linejoin="round" stroke-width="1.25" />
    <path d="M11.6666 9.16669V14.1667" stroke="currentColor" stroke-linecap="round" stroke-linejoin="round" stroke-width="1.25" />
    <path d="M4.16663 5.83337L4.99996 15.8334C4.99996 16.2754 5.17555 16.6993 5.48811 17.0119C5.80068 17.3244 6.2246 17.5 6.66663 17.5L13.3333 17.5C13.7753 17.5 14.1992 17.3244 14.5118 17.0119C14.8244 16.6993 14.9999 16.2754 14.9999 15.8334L15.8333 5.83337" stroke="currentColor" stroke-linecap="round" stroke-linejoin="round" stroke-width="1.25" />
    <path d="M7.5 5.83333L7.5 3.33333C7.5 3.11232 7.5878 2.90036 7.74408 2.74408C7.90036 2.5878 8.11232 2.5 8.33333 2.5L11.6667 2.5C11.8877 2.5 12.0996 2.5878 12.2559 2.74408C12.4122 2.90036 12.5 3.11232 12.5 3.33333L12.5 5.83333" stroke="currentColor" stroke-linecap="round" stroke-linejoin="round" stroke-width="1.25" />
  </symbol>
</svg>
